<?xml version="1.0" encoding="utf-8"?>
<!-- Generator: Adobe Illustrator 23.0.6, SVG Export Plug-In . SVG Version: 6.00 Build 0)  -->
<svg version="1.1" xmlns="http://www.w3.org/2000/svg" xmlns:xlink="http://www.w3.org/1999/xlink" x="0px" y="0px"
	 viewBox="0 0 750 500" style="enable-background:new 0 0 750 500;" xml:space="preserve">
<style type="text/css">
	.st0{display:none;}
	.st1{display:inline;opacity:0.26;fill:#5A5A66;}
	.st2{display:inline;fill:#FFFFFF;}
	.st3{display:inline;fill:url(#SVGID_1_);}
	.st4{opacity:0.53;fill:#5A5A66;}
	.st5{fill:none;stroke:#FFFFFF;stroke-width:0.8243;stroke-miterlimit:10;}
	.st6{fill:#7590AA;}
	.st7{fill:#5A5A66;}
	.st8{fill:#CCCCCC;}
	.st9{fill:#EDB62B;}
	.st10{opacity:0.39;fill:#A87D1D;}
	.st11{fill:#9595A5;}
	.st12{fill:#36363D;}
	.st13{fill:none;stroke:#36363D;stroke-width:0.976;stroke-miterlimit:10;}
	.st14{fill:none;stroke:#EDB62B;stroke-width:1.373;stroke-miterlimit:10;}
	.st15{opacity:0.53;}
	.st16{fill:none;stroke:#5A5A66;stroke-width:1.952;stroke-miterlimit:10;}
	.st17{fill:#060526;}
	.st18{fill:#FFFFFF;}
	.st19{fill:#28282D;}
	.st20{fill:#FFC801;}
	.st21{fill:#072847;}
	.st22{fill:#F75C38;}
	.st23{fill:#ECECEC;}
	.st24{opacity:0.28;fill:#5A5A66;}
	.st25{opacity:0.13;fill:#5A5A66;}
	.st26{fill:none;stroke:#5A5A66;stroke-width:1.8112;stroke-linecap:round;stroke-miterlimit:10;}
	.st27{fill:#44444C;}
	.st28{fill:#171905;}
	.st29{fill:#D19F00;}
	.st30{fill:#2F2F35;}
	.st31{opacity:0.37;fill:#FFFFFF;}
	.st32{fill:#D35854;}
	.st33{fill:#EF7D6E;}
	.st34{fill:none;stroke:#99344C;stroke-width:0.5407;stroke-linecap:round;stroke-miterlimit:10;}
	.st35{fill:none;stroke:#560B0B;stroke-width:0.757;stroke-linecap:round;stroke-miterlimit:10;}
	.st36{fill:none;stroke:#99344C;stroke-width:1.0814;stroke-linecap:round;stroke-miterlimit:10;}
	.st37{fill:none;stroke:#8E8EA0;stroke-width:1.0814;stroke-miterlimit:10;}
	.st38{opacity:0.38;fill:#B4D1ED;}
	.st39{fill:none;stroke:#FFFFFF;stroke-width:8.8781;stroke-linecap:round;stroke-miterlimit:10;}
	.st40{opacity:0.42;fill:#841111;}
	.st41{opacity:0.49;fill:#B0322F;}
	.st42{fill:#BA2B1C;}
	.st43{opacity:0.49;fill:#44444C;}
	.st44{fill:#A35546;}
	.st45{fill:#844239;}
	.st46{fill:none;stroke:#6D3E3B;stroke-width:0.3309;stroke-linecap:round;stroke-miterlimit:10;}
	.st47{fill:#571717;}
	.st48{fill:#3A1414;}
	.st49{opacity:0.4;fill:#FEFEFE;}
	.st50{fill:none;stroke:#571717;stroke-width:0.976;stroke-linecap:round;stroke-miterlimit:10;}
	.st51{fill:#AF5858;}
	.st52{fill:#FEFEFE;}
	.st53{fill:#7F1C14;}
	.st54{fill:none;stroke:#783D32;stroke-width:0.9433;stroke-miterlimit:10;}
</style>
<g id="BACKGROUND" class="st0">
	<rect class="st1" width="750" height="500"/>
	<rect class="st2" width="750" height="313.6"/>
	
		<radialGradient id="SVGID_1_" cx="131.0611" cy="30.3611" r="282.3164" gradientTransform="matrix(2.9297 0 0 2.6017 -19.1076 -23.4285)" gradientUnits="userSpaceOnUse">
		<stop  offset="0" style="stop-color:#FFFFFF"/>
		<stop  offset="0.2058" style="stop-color:#FCFDFD"/>
		<stop  offset="0.3418" style="stop-color:#F3F5F6"/>
		<stop  offset="0.4576" style="stop-color:#E4E8EB"/>
		<stop  offset="0.5622" style="stop-color:#CFD6DB"/>
		<stop  offset="0.6592" style="stop-color:#B4BEC7"/>
		<stop  offset="0.7505" style="stop-color:#92A0AE"/>
		<stop  offset="0.8375" style="stop-color:#6A7D90"/>
		<stop  offset="0.9189" style="stop-color:#3C566F"/>
		<stop  offset="0.997" style="stop-color:#092A49"/>
		<stop  offset="1" style="stop-color:#072847"/>
	</radialGradient>
	<rect class="st3" width="750" height="500"/>
</g>
<g id="OBJECTS">
	<g>
		<g>
			<g>
				<path class="st4" d="M204.3,171.1c0,0-76-68.4-97.9-29.2c-7.3,15,96.9,36,96.9,36L204.3,171.1z"/>
				<path class="st5" d="M120.3,139.8c0,0,57.5,15.2,76,26.4"/>
				<path class="st5" d="M161.9,152.2c0,0-5.3-3.7-9.7-13.8"/>
				<path class="st6" d="M189.3,175L132,130.1c30.5,3.5,72.2,41,72.2,41l-1,6.1l-4.1,0C196.8,176.7,193.4,175.9,189.3,175z"/>
				<path class="st5" d="M143.8,146.5c0,0-10.7,1.1-20.6,7"/>
				<path class="st7" d="M173.9,171.4c16.4,4,29.3,6.6,29.3,6.6l1.1-6.9c0,0-13.3-12-30.4-23V171.4z"/>
			</g>
			<g>
				<path class="st8" d="M214.6,172.8c0,0-65.7-135.6-116.3-96.9C80.3,91.3,209.4,181.2,209.4,181.2L214.6,172.8z"/>
				<path class="st5" d="M114.8,78.7c0,0,66.4,52.1,92.3,91.7"/>
				<path class="st5" d="M110.6,95.3c0,0,16.9-1.4,24.6,0.2"/>
				<path class="st5" d="M153.8,91.4c0,0,1.7,15.5,5.6,25.7"/>
				<path class="st5" d="M160.7,136.6c0,0,10-2.5,17.9-0.6"/>
				<path class="st7" d="M173.9,155.3c19.7,14.9,35.5,25.9,35.5,25.9l2.3-3.8v-10.3c-5.8-11.1-20-36.9-37.8-59.2V155.3z"/>
			</g>
		</g>
		<g>
			<g>
				<path class="st9" d="M199.8,347.4c0,0-123.1,1-114.7-34.7c8.4-35.7,66-3.9,66-3.9s-45.4-27.8-49.5-63.2
					c-4.1-35.4,84.3,51.7,84.3,51.7s-26.8-28.9-27.7-66C157.2,194,216.9,247.5,199.8,347.4z"/>
				<path class="st10" d="M192.4,328.5c0,0-95.3-103.4-71.1-70.7C145.5,290.5,192.4,328.5,192.4,328.5z"/>
				<path class="st10" d="M102.2,313.8l85.9,15.9C188.1,329.6,113.2,326.3,102.2,313.8z"/>
				<path class="st10" d="M171,238.9l27,66C198,304.9,186,249.1,171,238.9z"/>
			</g>
			<path class="st10" d="M173.9,223.9v57c6.2,10.2,11.9,16.4,11.9,16.4s-4.7-4.6-11.9-11.4v60.8c15,0.8,25.9,0.7,25.9,0.7
				C210.9,282.9,189.9,237.8,173.9,223.9z"/>
		</g>
		<g>
			<path class="st11" d="M589.1,289.7c5.8-3.2,11.4-5.9,16.6-7.9c62.1-25.8,57.7-60.7,72.8-90.8c-33.6,8.6-51.2,57.1-80.6,70.4
				c-29.3,13.3-57,36.5-57,36.5s-2.5,7.1-4.2,14.3c-1.1,0.8-2.1,1.6-3.1,2.5c0.8,0.7,1.5,1.3,2.2,1.9c-1.6,8.2-1.5,14.7,5.7,7.7
				c0.5-0.5,1-0.9,1.5-1.4c3.3,2.9,3.3,2.9,3.3,2.9s40.7,6.8,63.6-11.8c23-18.5,55.7-20.8,55.7-20.8S629.3,282.4,589.1,289.7z"/>
			<path class="st12" d="M553.4,302.6c0,0,28-22,57.8-33.3s49.5-56.2,49.5-56.2s-25.8,44.1-50.5,52.4c-24.6,8.3-56.8,31.1-56.8,31.1
				L553.4,302.6z"/>
			<path class="st13" d="M665.5,293.1c0,0-79.6-3.1-127.1,32.1"/>
			<path class="st4" d="M547.2,325.9c3.8,0.5,17.3,2.1,31.9,0v-54.7c-13.4,7.9-25.1,16.4-31.9,21.6V325.9z"/>
		</g>
		<g>
			<g>
				<path class="st9" d="M557.8,170.8c0,0,9.4,37.2,45.8,22.6c-18.5-7.8-19.1-18.9-19.1-18.9s18.9,24.9,41.9,7.1
					C607,174,604,165.1,604,165.1s20.4,2.6,26.7,7.7c6.3,5.1,10.3-13.9,10.3-13.9s-32.4-1.1-35-5.7c-2.6-4.7,37.9-3,37.9-3l1.3-9.5
					c0,0-29.6,5.1-19.9-1c9.8-6,16.6-4.7,16.6-4.7l-3.3-15.2l-22.4-11c0,0-12.9,24.8-18.1,25.7c-5.2,0.8,11.5-28.9,11.5-28.9
					l-14.7,2.3c0,0-5.8,24.2-9.7,25.1c-3.8,0.8,2.3-22.6,2.3-22.6s-10.6,3.6-14,22.9c-3.8,0.8-8.2-10.8-3.6-18.7
					C548.6,139.8,549.3,160.5,557.8,170.8z"/>
				<path class="st4" d="M625.3,130.2c0,0-47.2,14.7-64.2,38.1C589.7,148.6,625.3,130.2,625.3,130.2z"/>
			</g>
			<path class="st4" d="M579.1,118.1c-2.2,3.4-4.3,8.3-5.5,15.1c-3.8,0.8-8.2-10.8-3.6-18.7c-21.3,25.4-20.7,46.1-12.2,56.3
				c0,0,4.9,19.4,21.3,24.7V118.1z"/>
		</g>
		<g>
			<path class="st14" d="M534.1,283.5c0,0,14.3-26.8,41-39.7c26.7-13,53.3-34.3,70.6-65"/>
			<g>
				<path class="st9" d="M562.7,250.7c0,0-4.8-5.4-0.5-12.4C566.3,241.9,564.7,246.5,562.7,250.7z"/>
				<path class="st9" d="M562.7,250.7c0,0,3.4,6.3,11.4,4.7C572.1,250.3,567.3,250.2,562.7,250.7z"/>
			</g>
			<g>
				<path class="st9" d="M577,242.8c0,0-4.8-5.4-0.5-12.4C580.7,234,579.1,238.7,577,242.8z"/>
				<path class="st9" d="M577,242.8c0,0,3.4,6.3,11.4,4.7C586.5,242.4,581.6,242.3,577,242.8z"/>
			</g>
			<g>
				<path class="st9" d="M589.6,235.1c0,0-4-6,1.3-12.3C594.5,227,592.3,231.3,589.6,235.1z"/>
				<path class="st9" d="M589.6,235.1c0,0,2.4,6.8,10.6,6.4C599.1,236.1,594.3,235.3,589.6,235.1z"/>
			</g>
			<g>
				<path class="st9" d="M602.4,226.7c0,0-4-6,1.3-12.3C607.3,218.6,605,222.9,602.4,226.7z"/>
				<path class="st9" d="M602.4,226.7c0,0,2.4,6.8,10.6,6.4C611.8,227.7,607,226.9,602.4,226.7z"/>
			</g>
			<g>
				<path class="st9" d="M613.6,217.2c0,0-5.9-4-3.5-11.9C615,207.8,614.6,212.7,613.6,217.2z"/>
				<path class="st9" d="M613.6,217.2c0,0,4.8,5.3,12.2,1.8C622.7,214.5,617.9,215.6,613.6,217.2z"/>
			</g>
			<g>
				<path class="st9" d="M625.4,207.3c0,0-5.9-4-3.5-11.9C626.8,197.9,626.4,202.7,625.4,207.3z"/>
				<path class="st9" d="M625.4,207.3c0,0,4.8,5.3,12.2,1.8C634.5,204.6,629.7,205.6,625.4,207.3z"/>
			</g>
			<g>
				<path class="st9" d="M635,193.7c0,0-6.1-3.8-3.9-11.7C636.1,184.2,635.9,189.1,635,193.7z"/>
				<path class="st9" d="M635,193.7c0,0,5,5.2,12.3,1.4C644,190.7,639.3,191.9,635,193.7z"/>
			</g>
			<path class="st9" d="M643.8,181.4c0,0,6.8-2.2,6.7-10.4C645.1,172,644.1,176.8,643.8,181.4z"/>
		</g>
		<g class="st15">
			<path class="st16" d="M243.4,228.3c0,0-23.3-19.4-52.9-21.5c-29.6-2-62.3-11.8-89.8-33.7"/>
			<g>
				<path class="st7" d="M204.6,208.6c0,0,2.4-6.8-4.2-11.6C198,201.9,201.2,205.5,204.6,208.6z"/>
				<path class="st7" d="M204.6,208.6c0,0-0.8,7.2-8.8,8.7C195.7,211.8,200.2,209.9,204.6,208.6z"/>
			</g>
			<g>
				<path class="st7" d="M188.3,206.7c0,0,2.4-6.8-4.2-11.6C181.7,199.9,184.9,203.6,188.3,206.7z"/>
				<path class="st7" d="M188.3,206.7c0,0-0.8,7.2-8.8,8.7C179.4,209.9,183.9,208,188.3,206.7z"/>
			</g>
			<g>
				<path class="st7" d="M173.8,204.3c0,0,1.4-7.1-5.8-10.9C166.2,198.6,169.9,201.8,173.8,204.3z"/>
				<path class="st7" d="M173.8,204.3c0,0,0.3,7.2-7.4,9.9C165.4,208.8,169.5,206.2,173.8,204.3z"/>
			</g>
			<g>
				<path class="st7" d="M158.8,201.3c0,0,1.4-7.1-5.8-10.9C151.2,195.6,154.9,198.8,158.8,201.3z"/>
				<path class="st7" d="M158.8,201.3c0,0,0.3,7.2-7.4,9.9C150.4,205.8,154.6,203.2,158.8,201.3z"/>
			</g>
			<g>
				<path class="st7" d="M144.9,196.7c0,0,4-6-1.2-12.3C140,188.5,142.2,192.9,144.9,196.7z"/>
				<path class="st7" d="M144.9,196.7c0,0-2.5,6.8-10.6,6.3C135.4,197.6,140.2,196.8,144.9,196.7z"/>
			</g>
			<g>
				<path class="st7" d="M130.2,191.9c0,0,4-6-1.2-12.3C125.4,183.7,127.6,188.1,130.2,191.9z"/>
				<path class="st7" d="M130.2,191.9c0,0-2.5,6.8-10.6,6.3C120.7,192.9,125.6,192.1,130.2,191.9z"/>
			</g>
			<g>
				<path class="st7" d="M116.1,182.9c0,0,4.2-5.8-0.8-12.3C111.6,174.6,113.6,179,116.1,182.9z"/>
				<path class="st7" d="M116.1,182.9c0,0-2.7,6.7-10.8,5.9C106.7,183.6,111.5,182.9,116.1,182.9z"/>
			</g>
			<path class="st7" d="M103.4,174.8c0,0-7.2,0.5-10.1-7.1C98.6,166.6,101.4,170.7,103.4,174.8z"/>
		</g>
		<g>
			<g>
				<path class="st17" d="M576.1,411.2c0,2-88.1,3.6-196.9,3.6s-196.9-1.6-196.9-3.6c0-2,88.1-3.6,196.9-3.6
					S576.1,409.2,576.1,411.2z"/>
				<path class="st12" d="M568.8,313H182.3V88.7c0-10.4,8.4-18.8,18.8-18.8H550c10.4,0,18.8,8.4,18.8,18.8V313z"/>
				<rect x="202.1" y="89.6" class="st18" width="347" height="205.7"/>
				<path class="st18" d="M550.3,359.7H200.9c-10.3,0-18.6-8.3-18.6-18.6V313h386.5v28.2C568.8,351.4,560.5,359.7,550.3,359.7z"/>
				<rect x="333" y="336.9" class="st18" width="85.2" height="63.4"/>
				
					<ellipse transform="matrix(0.6837 -0.7298 0.7298 0.6837 -127.004 379.7159)" class="st4" cx="374.5" cy="336.4" rx="13" ry="13"/>
				<rect x="312.2" y="400.3" class="st18" width="128.8" height="10.4"/>
				<rect x="333" y="359.7" class="st19" width="85.2" height="13.1"/>
				<rect x="333" y="395.6" class="st4" width="85.2" height="4.7"/>
				<path class="st20" d="M535.6,112.8H215.3c-4,0-7.3-3.3-7.3-7.3v-0.1c0-4,3.3-7.3,7.3-7.3h320.3c4,0,7.3,3.3,7.3,7.3v0.1
					C542.9,109.5,539.6,112.8,535.6,112.8z"/>
				<path class="st21" d="M221.5,105.4c0,2.2-1.8,4-4,4c-2.2,0-4-1.8-4-4c0-2.2,1.8-4,4-4C219.7,101.4,221.5,103.2,221.5,105.4z"/>
				<path class="st21" d="M233.7,105.4c0,2.2-1.8,4-4,4c-2.2,0-4-1.8-4-4c0-2.2,1.8-4,4-4C231.9,101.4,233.7,103.2,233.7,105.4z"/>
				<path class="st22" d="M245.9,105.4c0,2.2-1.8,4-4,4s-4-1.8-4-4c0-2.2,1.8-4,4-4S245.9,103.2,245.9,105.4z"/>
				<path class="st23" d="M531.8,289.5H219.1c-6.1,0-11.1-5-11.1-11.1V130.9c0-6.1,5-11.1,11.1-11.1h312.7c6.1,0,11.1,5,11.1,11.1
					v147.5C542.9,284.5,537.9,289.5,531.8,289.5z"/>
			</g>
			<g>
				<path class="st24" d="M524.2,154.8c0,7.6-6.2,13.8-13.8,13.8H247.5c-7.6,0-13.8-6.2-13.8-13.8l0,0c0-7.6,6.2-13.8,13.8-13.8
					h262.9C518,141,524.2,147.2,524.2,154.8L524.2,154.8z"/>
				<path class="st18" d="M277.5,141h-30c-7.6,0-13.8,6.2-13.8,13.8c0,7.6,6.2,13.8,13.8,13.8h30V141z"/>
			</g>
			<path class="st25" d="M495.6,194.7c0,5-4,9-9,9H265.9c-5,0-9-4-9-9l0,0c0-5,4-9,9-9h220.6C491.5,185.7,495.6,189.7,495.6,194.7
				L495.6,194.7z"/>
			<path class="st25" d="M495.6,226.4c0,5-4,9-9,9H265.9c-5,0-9-4-9-9l0,0c0-5,4-9,9-9h220.6C491.5,217.3,495.6,221.4,495.6,226.4
				L495.6,226.4z"/>
			<g>
				<path class="st25" d="M292,275.7h-50c-2.3,0-4.2-1.9-4.2-4.2v-17c0-2.3,1.9-4.2,4.2-4.2h50c2.3,0,4.2,1.9,4.2,4.2v17
					C296.1,273.9,294.3,275.7,292,275.7z"/>
				<path class="st25" d="M363.9,275.7h-50c-2.3,0-4.2-1.9-4.2-4.2v-17c0-2.3,1.9-4.2,4.2-4.2h50c2.3,0,4.2,1.9,4.2,4.2v17
					C368,273.9,366.2,275.7,363.9,275.7z"/>
				<path class="st25" d="M435.8,275.7h-50c-2.3,0-4.2-1.9-4.2-4.2v-17c0-2.3,1.9-4.2,4.2-4.2h50c2.3,0,4.2,1.9,4.2,4.2v17
					C440,273.9,438.1,275.7,435.8,275.7z"/>
				<path class="st25" d="M507.7,275.7h-50c-2.3,0-4.2-1.9-4.2-4.2v-17c0-2.3,1.9-4.2,4.2-4.2h50c2.3,0,4.2,1.9,4.2,4.2v17
					C511.9,273.9,510,275.7,507.7,275.7z"/>
			</g>
			<line class="st26" x1="283.6" y1="194.7" x2="472" y2="194.7"/>
			<line class="st26" x1="283.6" y1="226.4" x2="472" y2="226.4"/>
		</g>
	</g>
	<g>
		<g>
			<path class="st17" d="M563.9,450.7c0,2.9-43.4,5.3-97,5.3c-53.5,0-97-2.4-97-5.3c0-2.9,43.4-5.3,97-5.3
				C520.5,445.4,563.9,447.7,563.9,450.7z"/>
			<path class="st27" d="M489.5,286.4l-0.5,9.1L437.8,353c-4.2,4.7-7.2,10.5-8.5,16.7l-15.7,71.1h42.6l12-70l36.8-53.8l4.3-28.9
				L489.5,286.4z"/>
			<path class="st28" d="M464.3,393.5l3.9-22.8l31.6-46.2l1.9-9.2c0,0-38.6,45.7-41.6,52.8C457.2,375.2,464.3,393.5,464.3,393.5z"/>
			<path class="st7" d="M536.4,294.8c0,0,2.2,24.6-12.2,50.3C509.8,370.7,504,378,504,378l27.4,62.8h-46.2l-18-53.6
				c-2.8-8.5-1.6-17.8,3.4-25.2l31.1-46.7c0,0-0.6-10.3,0-23c3.3-12.6,19.3-4.3,19.3-4.3L536.4,294.8z"/>
			<path class="st29" d="M531.4,440.8l5,9.2H473c0,0,1.1-9.2,12.2-9.2C524.4,440.8,531.4,440.8,531.4,440.8z"/>
			<path class="st29" d="M456.2,440.8l-2.9,9.2h-55.4c0,0,2.3-9.2,15.7-9.2C421.1,440.8,456.2,440.8,456.2,440.8z"/>
			<path class="st30" d="M429.3,369.6l-2.8,12.5c0.1,0,0.1,0,0.2,0c10.5,0,18.9-8.5,18.9-18.9c0-5.1-2-9.7-5.3-13.1l-2.5,2.8
				C433.6,357.7,430.7,363.4,429.3,369.6z"/>
			<path class="st30" d="M467.2,387.1l1.1,3.3c0.2,0,0.3,0,0.5,0c8.6,0,15.5-6.9,15.5-15.5c0-7.5-5.3-13.7-12.3-15.2l-1.4,2.2
				C465.6,369.4,464.4,378.7,467.2,387.1z"/>
			<path class="st18" d="M436.1,442.1c0,0.7-0.6,1.4-1.4,1.4h-19.8c-0.7,0-1.4-0.6-1.4-1.4l0,0c0-0.7,0.6-1.4,1.4-1.4h19.8
				C435.5,440.8,436.1,441.4,436.1,442.1L436.1,442.1z"/>
			<path class="st18" d="M511.2,442.1c0,0.7-0.6,1.4-1.4,1.4h-23.4c-0.7,0-1.4-0.6-1.4-1.4l0,0c0-0.7,0.6-1.4,1.4-1.4h23.4
				C510.6,440.8,511.2,441.4,511.2,442.1L511.2,442.1z"/>
			<path class="st27" d="M504,378c0,0,5.8-7.3,20.2-32.9c14.4-25.7,12.2-50.3,12.2-50.3l-7.8-3.4c0.5,6.4,0.3,21.6-9.5,39.1
				c-8.3,14.8-18,30.4-23.9,39.8c-3.5,5.6-4,12.5-1.4,18.5l22.4,51.9h15.4L504,378z"/>
			<path class="st22" d="M519,171.3c0,0-0.1-9,2.8-11.3c3-2.3,0.7,1.5,1.5,3c0.8,1.5,2.7-4.6,8.8-2.7c6.1,1.9,5.8,3.5,3.6,4.8
				c-2.2,1.3-0.4,1.3,2.7,4c3.1,2.7,1.4,17.7-7,21.6c-2.6-3.2-2.6-3.2-2.6-3.2l-4.7-17.2L519,171.3z"/>
			<path class="st31" d="M532.1,160.3c-6.1-1.9-8,4.2-8.8,2.7c-0.8-1.5,1.5-5.3-1.5-3c-3,2.3-2.8,11.3-2.8,11.3l5.2-1l1.2,4.4l7.3-2
				c0,0-3.3-7.3-0.5-8.7c1.4-0.7,3.3-0.7,4.9-0.5C537.3,162.6,536,161.5,532.1,160.3z"/>
			<path class="st32" d="M501.7,198c0,0-7.6,2.4-13.5,8.4c-5.9,5.9-34.9,35.5-34.9,35.5l11,11.8L496,232L501.7,198z"/>
			<path class="st29" d="M488.7,238.1l7.3-6.1l5.7-34.1c0,0-7.6,2.4-13.5,8.4c-2,2-6.6,6.7-11.8,12
				C480.5,223.8,486.6,232.2,488.7,238.1z"/>
			<path class="st18" d="M488.7,238.1l5.2-4.4c-2.6-7.5-9.7-16.3-13-20.1c-1.4,1.4-3,3-4.6,4.6C480.5,223.8,486.6,232.2,488.7,238.1
				z"/>
			<path class="st28" d="M536.3,304.2c0.4-5.9,0.1-9.5,0.1-9.5l-8.9-3.8l-38.1-4.5C489.5,286.4,508.8,304.8,536.3,304.2z"/>
			<path class="st20" d="M529.4,196.8c0,0,25.5,18.7,26.9,25.5c-17.3,55.7-19.9,72.5-19.9,72.5s-29.6,4.3-46.9-8.4
				c1.9-59.2,5.4-78.4,12.2-88.4c20.5-2,20.5-2,20.5-2L529.4,196.8z"/>
			<path class="st18" d="M529.4,196.8l-7.2-0.9c0,0,0,0-5.3,0.5l-0.2,2.4c-0.5,5.2,3.6,9.7,8.9,9.7h0.2c4.6,0,8.3-3.4,8.8-7.8
				C531.5,198.4,529.4,196.8,529.4,196.8z"/>
			<path class="st33" d="M532.2,186.2v11.8c0,3.6-2.9,6.5-6.5,6.5h-0.1c-3.9,0-6.9-3.3-6.5-7.1l0.7-7.3l9-9.1L532.2,186.2z"/>
			<path class="st28" d="M530.7,185.5l-9.1,2.7l-1.9,1.9l-0.6,6.7C529.4,195.1,530.7,185.5,530.7,185.5z"/>
			<path class="st33" d="M532.7,181.2l2-5.4c0,0-3.6-8.3-11-7.8c-3.8,0.2-6.5,5.4-8.5,12.1c-2,6.7-2.5,12.4,1.8,12.4
				c4.3,0,12.1,0.1,14.4-7C532.5,182.7,532.7,181.2,532.7,181.2z"/>
			<path class="st33" d="M538.5,184.3c0,2.2-1.8,4-4,4s-4-1.8-4-4c0-2.2,1.8-4,4-4S538.5,182.1,538.5,184.3z"/>
			<path class="st31" d="M523.7,168.1c-3.8,0.2-6.5,5.4-8.5,12.1c-2,6.7-2.5,12.4,1.8,12.4c0.7,0,1.5,0,2.3,0c0.8-1.5,2.1-3.2,4-4.8
				c5.5-4.7,8.3-11.5,9.4-15C531,170.4,528,167.7,523.7,168.1z"/>
			<line class="st34" x1="531.4" y1="185.5" x2="535.3" y2="183.9"/>
			<path class="st35" d="M523.3,177.8c0,0,3.2,0,4.2,1.5"/>
			<path class="st35" d="M518.9,176.2c0,0-0.1-0.5-1.9-1"/>
			<polyline class="st34" points="520.1,177.8 517.9,180.3 520.1,181.1 			"/>
			<path class="st18" d="M516.9,183.4l6.4,2.2C523.3,185.5,518.2,188.1,516.9,183.4z"/>
			<path class="st36" d="M525.8,173.7c0,0,3.2,0.1,4.2,3.3"/>
			<path class="st36" d="M521,172.3c0,0-1.2-0.5-2.6,0"/>
			<path class="st37" d="M527.8,303.8c-1.3,7.6-4.3,19.5-11.1,31c-11.4,19.2-21.5,35.5-21.5,35.5s-6.2,4.2,0,20.2
				c6.2,16,20.9,50.3,20.9,50.3"/>
			<path class="st37" d="M527.8,303.8"/>
			<path class="st37" d="M528.8,295.5"/>
			<path class="st29" d="M507.1,208.6c0,0,0.3,19,13,31.9c12.8,12.9,0.1,11.4-6.7,1C506.6,231.2,502.5,204,507.1,208.6z"/>
			<polygon class="st28" points="534.5,235.8 529.4,262.4 534.7,263.4 			"/>
			<path class="st28" d="M489.5,276.7c0,0,35.4,11.6,47.8,13.4c0.9-3.8,0.9-3.8,0.9-3.8L489.5,276.7z"/>
			<g>
				
					<ellipse transform="matrix(0.7071 -0.7071 0.7071 0.7071 24.652 302.6579)" class="st38" cx="377.7" cy="121.6" rx="70.1" ry="70.1"/>
				
					<rect x="426.2" y="170.5" transform="matrix(0.7737 -0.6336 0.6336 0.7737 -24.7021 321.5312)" class="st30" width="22.9" height="49.7"/>
				<path class="st7" d="M328.6,62.4c-33,27-37.8,75.6-10.8,108.6c27,33,75.6,37.8,108.6,10.8c33-27,37.8-75.6,10.8-108.6
					C410.2,40.2,361.5,35.4,328.6,62.4z M419.5,173.5c-28.4,23.3-70.3,19.1-93.6-9.3c-23.3-28.4-19.1-70.3,9.3-93.6
					c28.4-23.3,70.3-19.1,93.6,9.3C452.1,108.3,448,150.2,419.5,173.5z"/>
				<path class="st39" d="M343.1,81.6c22-18.1,54.5-14.8,72.6,7.2c7.6,9.3,11.4,20.4,11.7,31.6"/>
				<path class="st22" d="M520.4,295.5l-0.3,0.2c-7.5,6.1-18.6,5-24.7-2.5l-61.3-74.9c-6.1-7.5-5-18.6,2.5-24.7l0.3-0.2
					c7.5-6.1,18.6-5,24.7,2.5l61.3,74.9C529,278.3,527.9,289.3,520.4,295.5z"/>
				<path class="st40" d="M509.1,282l-61.3-74.9c-4.1-5.1-5-11.7-2.8-17.4c-2.9,0.5-5.7,1.7-8.2,3.7l-0.3,0.2
					c-7.5,6.1-8.6,17.2-2.5,24.7l61.3,74.9c6.1,7.5,17.2,8.6,24.7,2.5l0.3-0.2c2.4-2,4.2-4.5,5.3-7.3
					C519.6,289.2,513.3,287.1,509.1,282z"/>
				<path class="st18" d="M448.9,122c0-39.7-32.2-71.9-71.9-71.9c-39.7,0-71.9,32.2-71.9,71.9c0,39.7,32.2,71.9,71.9,71.9
					C416.7,193.9,448.9,161.7,448.9,122z M419.5,173.5c-28.4,23.3-70.3,19.1-93.6-9.3c-23.3-28.4-19.1-70.3,9.3-93.6
					c28.4-23.3,70.3-19.1,93.6,9.3C452.1,108.3,448,150.2,419.5,173.5z"/>
			</g>
			<g>
				<path class="st33" d="M556.3,222.3c0,0,1.4,7.8,1.6,19.6c0.2,7.4,0.1,24.8,0.1,36.5c0,6.1-5.6,10.7-11.6,9.5l-56.8-11.2
					l-10.2,3.6c-4.2,1.4-8.8,0.3-11.8-2.9l-5.4-5.8l-2.2,0.8c-1.4,0.5-2.9-0.1-3.5-1.4l0,0c-0.7-1.4-0.1-3.1,1.3-3.8l18-9.2
					c5.1-2.6,11-3.5,16.6-2.4l42.4,8.1l-0.2-27.6c0,0,0.2-14.1,12.4-16.2C554.1,218.4,556.3,222.3,556.3,222.3z"/>
				<path class="st31" d="M534.7,263.3L534.7,263.3l-42.4-8c-5.7-1.1-11.5-0.2-16.6,2.4l-2.1,1.1c1.4-0.4,5.9-0.4,20.4,4.6
					c19.8,6.8,45.5,14.8,52.3,10.9c6.8-3.9,0-9,0-9L534.7,263.3z"/>
				<path class="st29" d="M558,251.9c0-4,0-7.6-0.1-10c-0.3-11.8-1.6-19.6-1.6-19.6s-2.2-3.9-9.5-2.7c-12.2,2.2-12.4,16.2-12.4,16.2
					l0.1,16.3C540.4,250.7,549.9,249.1,558,251.9z"/>
				<path class="st18" d="M534.5,246.3l0,5.9c5.8-1.5,15.4-3,23.4-0.3c0-2.2,0-4.2,0-5.9C549.6,244.6,540.2,245.5,534.5,246.3z"/>
				<line class="st34" x1="534.7" y1="263.4" x2="546.3" y2="265.3"/>
				<path class="st41" d="M554.3,276.1c-6.3,0-11.4,4.8-12,11l4,0.8c6,1.2,11.6-3.4,11.6-9.5c0-0.6,0-1.1,0-1.7
					C556.8,276.3,555.6,276.1,554.3,276.1z"/>
			</g>
			<path class="st28" d="M486.3,282.1c0,0,3.6-2,12.7,0c9.1,2,27.5,3.3,27.5,3.3l0.2-1.4c-37-7.5-37.2-7.3-37.2-7.3l-6,2.1
				L486.3,282.1z"/>
			<path class="st28" d="M456.2,231.4c0,0,2.9,0.7,2.9,3.1c3.4,1.4,4.2,4.1,3.7,6c3.4,1.9,3.9,6.1-1.7,10.7
				c-1.6-1.9-1.6-1.9-1.6-1.9L456.2,231.4z"/>
			<g>
				<path class="st33" d="M449.6,242.1c-1.2,1-3,0.8-4-0.4l0,0c-1-1.2-0.8-3,0.4-4l7.2-5.9c1.2-1,3-0.8,4,0.4l0,0c1,1.2,0.8,3-0.4,4
					L449.6,242.1z"/>
				<path class="st33" d="M452.2,248.2c-1.4,1.2-3.5,1-4.6-0.4l0,0c-1.2-1.4-1-3.5,0.4-4.6l8.3-6.9c1.4-1.2,3.5-1,4.6,0.4l0,0
					c1.2,1.4,1,3.5-0.4,4.6L452.2,248.2z"/>
				<path class="st33" d="M456.3,251.7c-1.1,0.9-2.8,0.8-3.8-0.4l0,0c-0.9-1.1-0.8-2.8,0.4-3.8l6.8-5.6c1.1-0.9,2.8-0.8,3.8,0.4l0,0
					c0.9,1.1,0.8,2.8-0.4,3.8L456.3,251.7z"/>
			</g>
		</g>
		<g>
			<path class="st17" d="M364,450.2c0,3.2-41.3,5.8-92.3,5.8c-51,0-92.3-2.6-92.3-5.8c0-3.2,41.3-5.8,92.3-5.8
				C322.6,444.5,364,447,364,450.2z"/>
			<g>
				<path class="st42" d="M300.3,399.1h-69.6c-3,0-5.5-2.5-5.5-5.5v-0.1c0-3,2.5-5.5,5.5-5.5h69.6V399.1z"/>
				<path class="st42" d="M286.3,423.9h-72.5c-3,0-5.5-2.5-5.5-5.5v-0.1c0-3,2.5-5.5,5.5-5.5h72.5V423.9z"/>
				<polygon class="st42" points="274.4,449.4 255.8,449.4 307.4,374.2 326.1,374.2 				"/>
				<path class="st27" d="M281.1,216.5v14l35.6,42.3c4.9,5.8,6.9,13.4,5.6,20.9l-9.7,53.9h-37.1l14.2-62.2l-26.5-25.6l-0.9-42.4
					L281.1,216.5z"/>
				<polygon class="st7" points="269,218.2 261.9,377.2 227,377.2 239,218.2 				"/>
				<path class="st7" d="M313.7,269.2c-4.9,2.1-8.3,7-8.3,12.6c0,7.6,6.2,13.7,13.7,13.7c1,0,1.9-0.1,2.8-0.3l0.3-1.6
					c1.3-7.5-0.7-15.1-5.6-20.9L313.7,269.2z"/>
				<path class="st27" d="M265.3,300.8c-1.7-0.8-3.6-1.2-5.6-1.2c-7.4,0-13.5,6-13.5,13.5s6,13.5,13.5,13.5c1.6,0,3.1-0.3,4.5-0.8
					L265.3,300.8z"/>
				<polygon class="st27" points="227,377.2 237.2,377.2 246.2,219.7 245.2,218.2 239,218.2 				"/>
				<polygon class="st43" points="228.2,360.4 227,377.2 261.9,377.2 262.6,360.4 				"/>
				<polygon class="st43" points="279.7,328.9 275.5,347.5 312.6,347.5 315.9,328.9 				"/>
				<line class="st37" x1="246.2" y1="219.7" x2="237.2" y2="377.2"/>
				<polygon class="st43" points="268.5,228.5 267,263.3 275.5,271.6 				"/>
				<path class="st20" d="M275.5,347.5l-2.8,10l46.7-0.1c0,0,1.6-6.8-6.7-9.8C279.1,347.5,275.5,347.5,275.5,347.5z"/>
				<path class="st20" d="M227,377.2l-1.1,10.9H269c0,0,0.6-9.2-7.1-10.9C240.1,377.2,227,377.2,227,377.2z"/>
				<path class="st7" d="M260.2,380.3c0,0.6-0.5,1-1,1h-14.9c-0.6,0-1-0.5-1-1l0,0c0-0.6,0.5-1,1-1h14.9
					C259.7,379.3,260.2,379.8,260.2,380.3L260.2,380.3z"/>
				<path class="st7" d="M311.2,350.2c0,0.6-0.5,1-1,1h-14.9c-0.6,0-1-0.5-1-1l0,0c0-0.6,0.5-1,1-1h14.9
					C310.7,349.1,311.2,349.6,311.2,350.2L311.2,350.2z"/>
				<path class="st22" d="M327.9,374.2h-72.6c-4.6,0-8.3-3.7-8.3-8.3v-0.2c0-4.6,3.7-8.3,8.3-8.3h72.6c4.6,0,8.3,3.7,8.3,8.3v0.2
					C336.2,370.5,332.5,374.2,327.9,374.2z"/>
				<polygon class="st42" points="225.5,449.4 206.8,449.4 258.5,374.2 277.1,374.2 				"/>
				<rect x="310.1" y="374.2" class="st22" width="15.8" height="75.3"/>
				<rect x="268.1" y="374.2" class="st22" width="15.8" height="75.3"/>
				<path class="st28" d="M262.3,218.2H239l-0.7,9.2c20-1.8,42.7-10.9,42.7-10.9l-18.8,0.8L262.3,218.2z"/>
				<g>
					<path class="st44" d="M268.8,144.5c0,0,9.1-1.2,18,4.9c8.9,6.1,24.6,16.1,24.6,16.1l13.9-25.4c1.3-2.4,3.7-4.2,6.6-4.9
						l14.2-3.7c1.1-0.3,2.2,0.3,2.4,1.2l0,0c0.2,0.9-0.5,1.9-1.6,2.2l-3.8,1c0,0,1.5,8.2-1.1,10.3c-2.6,2.1-6.6,4-6.6,4L322.6,175
						c-2.5,5.7-10.5,8.2-16,5l-26.1-15L268.8,144.5z"/>
					<path class="st45" d="M307.9,180.6c1.1-2.3,3.5-4.3,6.5-5.1c2.7-0.7,5.4-0.3,7.5,0.8C319,180.6,312.8,182.6,307.9,180.6z"/>
					<line class="st46" x1="311.4" y1="165.4" x2="308.5" y2="170.1"/>
				</g>
				<path class="st20" d="M281.1,216.5l-2.1-33.1l2.9-4.3c2.3-3.4,2.9-7.8,1.6-11.7l-10.2-23.1l-9.1-2.7l-17,5.3l-8.2,72.8
					C248.5,219.8,264.8,219.2,281.1,216.5z"/>
				<path class="st47" d="M275.5,139c-0.7-4.3-1.4-8.3-1.7-9.6c-0.4-1.9,0.9-4.6,2.1-6.4c1.1-1.7,1.6-3.7,1.5-5.8
					c-0.3-3.8-1.3-9.5-5.3-11.4c-6.2-3.1-16.8-3.1-21.9,7.6c-2.9,5.9-3.3,17-3.1,25.7H275.5z"/>
				<path class="st44" d="M258.5,125.9l-1,26.3l1.8-0.1c0.4,0.4,9.1-0.4,9-1l-0.7-15.8l-0.6-4L258.5,125.9z"/>
				<path class="st48" d="M267.9,140.9l-0.2-5.6l-9.1-9.4C258.5,125.9,262.6,137.9,267.9,140.9z"/>
				<path class="st44" d="M272,108.4c0,0,4.5,3.6,4.4,11.6c-0.1,8-2.6,15.9-6.8,15.7c-4.2-0.2-12-5.8-12.1-15.3
					c3.1-3.2,7.2-4.4,9.4-5.8C269.2,113.3,272,108.4,272,108.4z"/>
				<path class="st49" d="M272,108.4c0,0-2.9,4.8-5.1,6.2c-1.6,1-4.3,1.9-6.8,3.6c0.9,7.6,2.8,15.2,6.8,16.9
					c0.2,0.1,0.4,0.2,0.6,0.2c0.7,0.3,1.4,0.4,2,0.4c4.2,0.2,6.7-7.7,6.8-15.7C276.5,112.1,272,108.4,272,108.4z"/>
				<path class="st50" d="M269,121.3c0,0-1.9-1.2-4.9,0"/>
				<path class="st50" d="M274.5,121.1c-0.1-0.1,0.6-0.4,1.9-0.3"/>
				<path class="st50" d="M269,117.1c0,0-2.5-1.6-5.3,0"/>
				<path class="st50" d="M273.6,116.4c0,0,1.1-0.6,2.4-0.4"/>
				<path class="st51" d="M271.3,126.1h1.9C273.2,126.1,272.5,127.1,271.3,126.1z"/>
				<path class="st52" d="M273.6,128.4h-7.1C266.5,128.4,271.7,132.6,273.6,128.4z"/>
				<path class="st44" d="M259.3,124.8c0,2.1-1.7,3.7-3.7,3.7c-2.1,0-3.7-1.7-3.7-3.7c0-2.1,1.7-3.7,3.7-3.7
					C257.7,121.1,259.3,122.7,259.3,124.8z"/>
				<path class="st52" d="M257.7,127.9c0,0.8-0.6,1.4-1.4,1.4c-0.8,0-1.4-0.6-1.4-1.4c0-0.8,0.6-1.4,1.4-1.4
					C257,126.5,257.7,127.2,257.7,127.9z"/>
				<path class="st44" d="M247,147l-4.6,41l-0.1,0.8c19.8-11.2,6.3-42.3,6.3-42.3l0,0L247,147z"/>
				<path class="st44" d="M252.3,145.4c1,3.6,5,15.2,14,15.2c7.1,0,5.4-10.3,3.5-17.2l-5.8-1.7L252.3,145.4z"/>
				<path class="st29" d="M278.9,183.4c0,0-11.1,11.8-22.7,13.5c-11.6,1.6-13.3,7.7-1.4,5.7c11.9-2,25.5,2.4,25.5,2.4L278.9,183.4z"
					/>
				<rect x="310.1" y="374.2" class="st53" width="15.8" height="7.1"/>
				<rect x="268.1" y="374.2" class="st53" width="15.8" height="7.1"/>
				<g>
					<path class="st45" d="M207.5,136.2l-7.1-16.3c-0.4-1-1.5-1.5-2.6-1.3l0,0c-1.3,0.3-2,1.6-1.6,2.9l2.5,7.8l-4.8-6.2
						c-0.9-1.2-2.7-1.3-3.8-0.3l0,0c-0.8,0.8-1,1.9-0.6,2.9l3.5,7.8l-3.2-2.7c-0.6-0.5-1.5-0.5-2.1,0.1l0,0
						c-0.4,0.5-0.5,1.2-0.2,1.7l13,23.7L207.5,136.2z"/>
					<path class="st44" d="M247,147c0,0-3.5,1-9,7.3c-5.6,6.3-14.9,13.9-14.9,13.9l-15.9-40.7c-0.4-1-1.6-1.5-2.6-1.1l0,0
						c-0.9,0.4-1.4,1.3-1.2,2.3l1.7,7.6c0,0-9.1,5.3-5.6,17.3c2.1,7.1,9.5,20.8,15.3,30.9c3.5,6.1,12,7.1,16.8,2l20.3-21.6L247,147z
						"/>
					<line class="st54" x1="223.1" y1="168.1" x2="226.9" y2="175.8"/>
					<path class="st45" d="M230.8,187c-2.1-2.5-5.2-4-8.7-4c-2.5,0-4.9,0.8-6.8,2.2C218.9,190.3,226.1,191.1,230.8,187z"/>
				</g>
				<polygon class="st48" points="243.6,177.2 244,173.1 250.1,166.7 				"/>
				<line class="st46" x1="343.6" y1="139" x2="338" y2="140.9"/>
				<line class="st46" x1="343.1" y1="135.7" x2="337.5" y2="137.6"/>
				<line class="st46" x1="337.5" y1="137.6" x2="338" y2="145.8"/>
			</g>
		</g>
	</g>
</g>
</svg>
