<?xml version="1.0" encoding="utf-8"?>
<!-- Generator: Adobe Illustrator 23.0.3, SVG Export Plug-In . SVG Version: 6.00 Build 0)  -->
<svg version="1.1" xmlns="http://www.w3.org/2000/svg" xmlns:xlink="http://www.w3.org/1999/xlink" x="0px" y="0px"
	 viewBox="0 0 600 600" style="enable-background:new 0 0 600 600;" xml:space="preserve">
<style type="text/css">
	.st0{fill:#D8D8D8;}
	.st1{fill:#EAEAEA;}
	.st2{fill:none;stroke:#202124;stroke-width:3;stroke-miterlimit:10;}
	.st3{fill:#B1CEFC;}
	.st4{fill:none;}
	.st5{fill:#202124;}
	.st6{fill:#040844;}
	.st7{fill:#5492ED;}
	.st8{fill:#F7CD5B;}
	.st9{fill:#FFFFFF;}
	.st10{fill:none;stroke:#202124;stroke-width:0.75;stroke-miterlimit:10;}
	.st11{fill:#EB506E;}
	.st12{fill:#FFFFFF;stroke:#202124;stroke-width:0.75;stroke-miterlimit:10;}
	.st13{fill:#709AEE;}
	.st14{fill:#777777;}
	.st15{fill:none;stroke:#202124;stroke-miterlimit:10;}
</style>
<g id="window_1_">
	<path class="st0" d="M150.9,79.8c0,2.4,4.7,277,4.7,277l300.7,56.3l10.9-307.3L150.9,79.8z"/>
	<polygon class="st1" points="150.9,79.8 30,69.6 55.4,371.5 155.6,356.8 	"/>
	<polygon class="st1" points="467.2,105.8 576.7,104.2 547.2,477.7 456.3,413.1 	"/>
	<line class="st2" x1="89.9" y1="74.6" x2="113.2" y2="363"/>
	<line class="st2" x1="38.7" y1="172.5" x2="150.9" y2="168"/>
	<line class="st2" x1="47.8" y1="280.9" x2="154.1" y2="268.1"/>
	<line class="st2" x1="512.7" y1="105.1" x2="494.8" y2="440.4"/>
	<line class="st2" x1="459.7" y1="317.3" x2="556.5" y2="360.3"/>
	<line class="st2" x1="464.3" y1="188.4" x2="568.6" y2="207.7"/>
</g>
<g id="character">
	<g id="bottom">
		<path class="st3" d="M263.8,353.5c-0.4,7.6-0.8,15.2-1.2,22.8c33.3,6.3,66.7,12.5,100,18.8c-0.2-2.3-0.3-5.3-0.6-8.8
			c-1-15.2-1.3-18.4-1.9-22.7c-0.4-2.7-1.1-6.7-2.3-11.6C326.4,352.5,295.1,353,263.8,353.5z"/>
		<g>
			<path class="st4" d="M263.8,353.5c-0.3,7-0.7,13.9-1,20.9"/>
		</g>
		<g>
			<path class="st4" d="M358.9,355c1.6,10.9,2.7,21.9,3.2,32.9"/>
		</g>
		<g>
			<g>
				<path class="st5" d="M301.3,378.5c2.1,1.9,4.1,3.9,5.9,6.1c0.3,0.4,0.8-0.2,0.5-0.5c-1.8-2.2-3.8-4.2-5.9-6.1
					C301.5,377.7,301,378.2,301.3,378.5L301.3,378.5z"/>
			</g>
		</g>
	</g>
	<g id="torso">
		<path class="st6" d="M250,192.6c-0.9,3-2.2,7.6-3,13.3c-1,7-0.8,12.2-0.6,18.4c0.8,21.4,1.2,32.4,2.6,44.7
			c0.6,5.5,1.3,10.1,1.9,14.5c1.9,13,5.7,35.9,12.9,69.8c3.2,1.7,7.7,3.9,13.2,5.9c15.3,5.7,28.8,6.7,37.1,6.7
			c11.4,0,20.2-1.7,24.9-2.8c7.7-1.8,14.1-4.3,19-6.5c0.6-3.9,1.5-9.9,2.6-17.2c2-12.6,3.7-21.9,4-23.5c1.9-10.6,5.2-35,11.3-92.4
			c-1-2.5-2.7-6.2-6-9.5c-7.6-7.8-17.9-8.5-26-9.4c-23.5-2.7-16.9-6.1-45-9.9C280.7,192.6,264.2,192.1,250,192.6z"/>
		<g>
			<path class="st4" d="M250,192.6c40.9-1.6,82.1,5.9,119.8,21.6"/>
		</g>
		<g>
			<path class="st4" d="M246.9,210.1c-2.9,47.6,7.1,94.9,17,141.5"/>
		</g>
		<g>
			<path class="st4" d="M266.2,354.6c28.2,14.5,63,15.3,91.8,2.2"/>
		</g>
		<g>
			<path class="st4" d="M374.9,225.3c-3.1,42.9-8.7,85.7-16.9,127.9"/>
		</g>
	</g>
	<g id="head">
		<path class="st7" d="M281,190.3c-0.7,0.2-3.1,1-6.4,1.1c-1.1,0.1-3.1,0.1-5.5-0.4c-2.3-0.5-4.9-1-7-3.1c-3.5-3.4-3.2-8.3-3.1-9
			c0.3-3.4,2-5.6,3.5-7.7c3.6-4.7,8.1-6.6,9.2-7c4.2-1.6,7.8-1.4,10.1-1.3c3.2,0.2,7.2,1.8,15.2,4.9c2.1,0.8,6.4,2.5,11.8,5.2
			c4.6,2.3,5.8,3.3,6.8,4.5c2.9,3.4,3.4,7.5,3.6,9.4c0.3,2.4,0.6,4.6-0.3,6.8c-1.5,4-6.1,7-10.3,7.5
			C297.6,202.7,289.1,188.1,281,190.3z"/>
		<path class="st8" d="M278.9,190.8c-0.1,1.7-0.1,4.2,0.4,7.1c0.5,3.2,1.1,6.7,3.6,10.3c2.1,3,4.6,4.7,6.1,5.6c1,0.6,3.6,2,7.4,2.5
			c1.4,0.2,4.6,0.5,8.4-0.7c4.2-1.3,6.9-3.5,7.6-4.1c1.9-1.7,3.1-3.4,3.6-4.4c1-1.7,4.2-7,2.4-12.8c-0.9-3-2.8-4.9-3.5-5.6
			c-3-2.9-6.4-3.8-7.8-4c-5.1-0.3-8.9,0.5-11.5,1.3c-3.8,1.2-6.2,2.9-11.6,4.1C282,190.5,280.1,190.7,278.9,190.8z"/>
		<g>
			<path class="st4" d="M278.9,190.8c0.1,5.2,0.4,10.6,2.7,15.2c2.3,4.6,6.7,8.1,11.6,9.6s10.4,0.9,15.1-1.3
				c6.5-3.2,11.4-10.6,9.7-17.7"/>
		</g>
		<g>
			<g>
				<path class="st5" d="M293.4,192.7c-0.9,3.6-3.4,15.2,2.6,15.6c0.5,0,0.5-0.7,0-0.8c-0.9-0.9-1.7-1.7-2.6-2.6
					c-0.1-0.8-0.2-1.7-0.3-2.5c-0.1-1-0.1-1.9,0-2.9c0.1-2.3,0.4-4.5,1-6.7C294.2,192.5,293.5,192.3,293.4,192.7L293.4,192.7z"/>
			</g>
		</g>
		<g>
			<path class="st4" d="M293.9,186.4c-3.1,1-6.2,1.9-9.4,2.9c-2.8,0.9-5.5,1.7-8.4,2c-2.5,0.3-5.1,0.1-7.6-0.4
				c-2.8-0.6-5.6-1.8-7.4-4c-2.7-3.2-2.8-8-1-11.8s5-6.7,8.4-9c2-1.3,4.2-2.5,6.6-3.1c4.2-0.9,8.5,0.2,12.6,1.5
				c7.2,2.3,14.2,5.2,21,8.5c3.1,1.5,6.2,3.2,8.1,6c2.9,4.2,2.5,9.7,2.1,14.7"/>
		</g>
		<g>
			<path class="st4" d="M294.4,186.3c3.1-0.8,6.2-1.7,9.4-1.8c3.2-0.1,6.5,0.5,9.1,2.4c1.7,1.2,3,2.9,4.2,4.6
				c0.6,0.9,1.2,1.8,1.4,2.8"/>
		</g>
		<ellipse class="st5" cx="288.6" cy="197.6" rx="1.1" ry="1.7"/>
		<ellipse class="st5" cx="304.6" cy="197.6" rx="1.1" ry="1.7"/>
	</g>
	<g id="hand_right">
		<path class="st5" d="M276.8,197.2c0.7-1,2.3-2.9,5-4c0.9-0.4,4.5-1.9,8.3-0.3c4.5,1.8,5.9,6.3,6.1,7.1c0.2,0.7,1.8,6.1-1.7,10.5
			c-0.4,0.5-2.5,3.2-5.2,3.5C284.9,214.5,279.2,207.9,276.8,197.2z"/>
		<path class="st9" d="M278,196.4c-0.9,0.7-2.5,2-3.7,4c-1.7,3-1.8,5.9-1.8,7.5c0,0.7,0.3,3.4,1.9,6.2c0.9,1.5,2.1,3.6,4.6,4.7
			c2.9,1.3,5.7,0.5,6.7,0.3c0.7-0.2,2.7-0.8,4.6-2.5c0.4-0.4,2-1.9,3-4.5c1-2.6,0.8-4.8,0.7-5.8c-0.2-2.6-1.1-4.4-1.4-5
			c-0.3-0.5-1.2-2.3-3.2-4.1c-0.8-0.7-1.9-1.7-3.4-2.2C282.4,193.7,278.8,195.8,278,196.4z"/>
		<path class="st8" d="M259.6,223.5c1.2-2.8,2.5-5.7,3.7-8.5c0.3-3.4,1.1-8.3,3.7-13.6c1.5-3,3.7-7.3,8.5-11c4.9-3.8,10-5,12.8-5.4
			c2.1,2.1,2.8,4.9,1.9,7c-0.2,0.5-0.6,1.2-1.5,1.9c-1.1-0.3-5.5-1.1-9.7,1.5c-2.8,1.7-4.2,4.1-4.7,5.1c-1.9,3.4-1.8,6.7-1.8,7.5
			c0.1,1,0.2,3.6,1.9,6.2c1.8,2.7,4.1,4,5.2,4.5c1.7,0,3,1,3.3,2.2c0.2,1-0.3,1.8-0.3,1.9c-0.2,0.3-0.6,0.9-1.9,1.3
			c-1.7,0.5-3.1,0.2-4.7,0c-3.7-0.6-3.5-0.2-5.2-0.5c-2.4-0.4-2.8-0.8-4.2-1C265.2,222.2,262.8,222.1,259.6,223.5z"/>
		<path class="st6" d="M250,192.6c-2.1,0.6-5,1.4-8.5,2.6c-2.3,0.8-8.7,3-20.4,8.7c-8.1,3.9-13.8,6.8-21.1,11.5
			c-7,4.6-9.9,7.3-11.8,9.3c-1.5,1.6-5.5,6.1-8.1,12.8c-2,5-1.7,7.3-1.4,8.5c0.9,3.8,3.9,6,4.4,6.4c1.3,0.9,4,2.4,12.3,1.6
			c5.1-0.5,8.9-1.5,13.2-2.8c7-2.1,11.8-3.5,18.5-6.2c4-1.6,10.9-4.3,19.4-9.1c5.6-3.1,12.7-7.6,20.3-13.6c0-0.9,0-2.4-0.7-4.1
			c-0.9-2.2-2.3-3.5-3-4c-2.9,1-6.5,1.8-10.6,2c-1.4,0.1-2.8,0.1-4.1,0C248.9,208.5,249.5,200.6,250,192.6z"/>
		<g>
			<path class="st4" d="M247.8,193c-14.4,5-28.4,11.3-41.7,18.9c-6.1,3.5-12.2,7.3-17.2,12.2c-5,5-8.9,11.3-10,18.2
				c-0.4,2.6-0.4,5.5,1.1,7.6c1.2,1.7,3.1,2.7,5.1,3.3c5.9,1.9,12.3,0.8,18.3-0.6c22.6-5.3,44-15.3,62.6-29.1"/>
		</g>
		<g>
			<g>
				<path class="st9" d="M207.7,220.9c18.5-1.4,36.9-3.3,55.3-5.7c0.5-0.1,0.5-0.8,0-0.8c-18.4,2.4-36.8,4.3-55.3,5.7
					C207.2,220.2,207.2,220.9,207.7,220.9L207.7,220.9z"/>
			</g>
		</g>
		<g>
			<g>
				<path class="st5" d="M263.1,215.2c2.3,1.7,3.5,4.4,3.3,7.3c0,0.5,0.7,0.5,0.8,0c0.2-3.1-1.2-6-3.7-7.9
					C263.1,214.2,262.8,214.9,263.1,215.2L263.1,215.2z"/>
			</g>
		</g>
		<g>
			<g>
				<path class="st5" d="M270.1,222.4c3,1.5,10.6,4.3,13,0.5c2.3-3.7-3.6-3.9-5.3-5.2c-0.4-0.3-0.9,0.2-0.5,0.5
					c0.5,0.4,1,0.7,1.6,0.9c0.5,0.2,1.1,0.3,1.7,0.4c1.3,0.4,1.4,0.3,1.5,1.9c0.6,1.2,0.2,1.9-1.1,1.9c-0.6,0.4-1.3,0.6-2.1,0.5
					c-0.9,0.1-1.8-0.1-2.6-0.2c-2-0.3-3.9-0.9-5.8-1.9C270,221.6,269.6,222.2,270.1,222.4L270.1,222.4z"/>
			</g>
		</g>
		<g>
			<g>
				<path class="st5" d="M271.9,207.7c0.2-9.1,9.7-15.4,18.2-11.6c0.4,0.2,0.8-0.5,0.4-0.6c-9-4-19.1,2.5-19.3,12.3
					C271.2,208.2,271.9,208.2,271.9,207.7L271.9,207.7z"/>
			</g>
		</g>
		<g>
			<g>
				<path class="st5" d="M271.5,197.5c5.1-4.8,11.5-7.5,18.5-7.8c0.5,0,0.5-0.8,0-0.8c-7.2,0.3-13.8,3.1-19,8
					C270.7,197.3,271.2,197.9,271.5,197.5L271.5,197.5z"/>
			</g>
		</g>
		<g>
			<path class="st4" d="M270.8,194.6c1.5-1.7,3.8-3.8,6.9-5.7c4.2-2.5,8.1-3.5,10.7-4"/>
		</g>
		<ellipse class="st10" cx="283.5" cy="207" rx="10.9" ry="12.4"/>
	</g>
	<g id="hand_left">
		<path class="st5" d="M294.4,207c-0.3-1.3-0.6-3.7,0.1-6.4c1.6-5.7,6.7-8.2,7.6-8.6c0.7-0.3,5.2-2.1,9.7,0.3c0.7,0.4,4,2.2,5.2,5.7
			c0.4,1.1,0.3,1.6,0.1,7c-0.3,6.1-0.3,6.3-0.5,6.7C314,215.4,299.9,209.5,294.4,207z"/>
		<path class="st9" d="M300.1,196.5c-1,0.6-3,2-4.5,4.7c-0.5,0.9-2,3.9-1.4,7.8c0.1,0.8,0.9,5.1,4.9,8c4.2,3,8.7,2.3,9.7,2.1
			c3.1-0.6,5-2.2,6-3c1-0.8,4.1-3.5,5-8.2c0.9-4.4-0.7-7.9-1.5-9.5c-0.8-1.5-2.7-4.8-6.4-6C307.9,191.1,303.3,192.8,300.1,196.5z"/>
		<path class="st6" d="M369.8,214.3c1.4,0.5,3.4,1.3,5.7,2.4c4.6,2.1,11.5,5.4,18.5,11.9c2.4,2.2,6.9,6.8,11,13.7
			c3.3,5.6,4.9,10.4,5.6,12.5c0.8,2.5,1.3,4.7,1.6,6.4c-0.2,1-0.7,2.6-1.8,4.1c-0.4,0.6-1.8,2.3-4.7,3.8c-2.2,1.1-5.4,2-11.7,1.7
			c-6.3-0.3-11-1.7-12.4-2.1c-5.6-1.6-14.5-4.3-24.6-11.2c-6.1-4.1-10.2-8.4-18.3-16.8c-5.1-5.3-11.4-12.3-18.1-20.7
			c0.1-1.2,0.5-3.8,2.5-6.3c1.1-1.4,2.3-2.2,3.1-2.7c5.7,2.7,11.8,5.3,18.2,7.9c6.7,2.6,13.1,4.9,19.2,6.9
			C365.7,221.9,367.8,218.1,369.8,214.3z"/>
		<path class="st8" d="M327.1,211.1c-0.1-0.8-0.2-2-0.4-3.3c-0.8-4.4-2.4-7.6-2.8-8.2c-1.7-3.1-3.3-6.1-6.9-8.1
			c-1.3-0.7-4.7-2.6-8.9-1.7c-5.4,1.2-7.8,6.1-8.1,6.8c0.9-0.5,3.7-2,7.4-1.6c4.1,0.5,6.6,3,7.4,3.8c0.5,0.5,2.3,2.5,3.1,5.8
			c0.3,1.2,1,4.3-0.5,7.7c-0.2,0.4-1,2.2-2.8,3.8c-3.1,2.8-6.8,3.2-8.4,3.3c-1.5,0.1-2.8,0-3.7-0.1c0.8,0.9,2.6,2.4,5.2,3
			c5.7,1.3,10.2-3.1,10.5-3.5c0.7,0.4,1.4,0.8,2,1.1c0.3-1.1,0.8-2.7,1.9-4.4C324,213.1,326,211.7,327.1,211.1z"/>
		<circle class="st10" cx="306.4" cy="207" r="12.3"/>
		<g>
			<g>
				<path class="st5" d="M302.5,219.4c4,5.1,10.6,3.2,15.4,0.5c0.4-0.2,0-0.9-0.4-0.6c-4.5,2.6-10.7,4.5-14.5-0.3
					C302.7,218.5,302.2,219.1,302.5,219.4L302.5,219.4z"/>
			</g>
		</g>
		<g>
			<g>
				<path class="st5" d="M300.2,194.4c0.5,0,0.5-0.8,0-0.8C299.7,193.6,299.7,194.4,300.2,194.4L300.2,194.4z"/>
			</g>
		</g>
		<g>
			<g>
				<path class="st5" d="M301,195c3.1-2.8,7.7-2.7,11.6-2.2c0.5,0.1,0.5-0.7,0-0.8c-4.1-0.5-8.9-0.5-12.1,2.4
					C300.1,194.8,300.6,195.3,301,195L301,195z"/>
			</g>
		</g>
		<g>
			<g>
				<path class="st5" d="M306.4,191c4.4-0.8,8.7,0.7,11.7,4c0.3,0.4,0.9-0.2,0.5-0.5c-3.2-3.5-7.7-5-12.4-4.2
					C305.7,190.4,305.9,191.1,306.4,191L306.4,191z"/>
			</g>
		</g>
		<g>
			<g>
				<path class="st5" d="M317.6,192.9c5.3,4.2,8.5,10.1,8.9,16.9c0,0.5,0.8,0.5,0.8,0c-0.4-6.9-3.6-13.1-9.1-17.4
					C317.8,192.1,317.2,192.6,317.6,192.9L317.6,192.9z"/>
			</g>
		</g>
		<g>
			<g>
				<path class="st9" d="M326,210.6c-3.2,2-5.3,5.2-5.7,8.9c-0.1,0.5,0.7,0.5,0.8,0c0.4-3.5,2.4-6.5,5.4-8.3
					C326.7,211,326.4,210.3,326,210.6L326,210.6z"/>
			</g>
		</g>
		<g>
			<g>
				<path class="st9" d="M326.9,211.4c14.3,7.1,29.1,12.9,44.4,17.6c0.5,0.1,0.7-0.6,0.2-0.7c-15.2-4.7-30-10.5-44.2-17.5
					C326.9,210.6,326.5,211.2,326.9,211.4L326.9,211.4z"/>
			</g>
		</g>
		<g>
			<path class="st4" d="M369.5,214.6c21.2,5.8,38.3,24.3,42.5,45.8"/>
		</g>
		<g>
			<g>
				<path class="st9" d="M320.2,220.1c12.7,16.8,28.4,33.1,47.2,43.1c10.6,5.6,40.6,16.4,45.2-2c0.1-0.5-0.6-0.7-0.7-0.2
					c-2.9,11.7-18.6,10.1-27.7,7.9c-8.4-2-16.2-5.8-23.4-10.5c-15.5-10.1-28.8-23.9-39.9-38.6C320.6,219.3,319.9,219.7,320.2,220.1
					L320.2,220.1z"/>
			</g>
		</g>
	</g>
</g>
<g id="details">
	<g id="window">
		<polygon class="st5" points="165.6,353.2 162.3,79.8 150.9,79.8 155.6,356.8 456.3,413.1 456.3,405.3 		"/>
	</g>
	<g id="plant">
		<polygon class="st11" points="205.3,361.5 184.8,360.3 180.1,318.9 210.6,318.9 		"/>
		<ellipse class="st12" cx="195.4" cy="319.5" rx="15.2" ry="3.6"/>
		<g>
			<g>
				<path class="st7" d="M195.3,320.5c-0.1-10.5,5-21.8-1.7-31.4c-1.1-1.6-3.7-0.1-2.6,1.5c6.3,8.9,1.2,20,1.3,29.9
					C192.3,322.4,195.3,322.4,195.3,320.5L195.3,320.5z"/>
			</g>
		</g>
		<g>
			<g>
				<path class="st7" d="M200,278.9c0.2,6.7-3.9,14.3-6.1,20.5c-0.6,1.8,2.3,2.6,2.9,0.8c2.3-6.7,6.4-14.2,6.2-21.3
					C203,277,200,277,200,278.9L200,278.9z"/>
			</g>
		</g>
		<g>
			<g>
				<path class="st7" d="M182.9,294.2c3.4,3.9,2.8,9,4.2,13.6c0.9,3.2,2.7,5.8,5.1,7.9c1.4,1.3,3.6-0.8,2.1-2.1
					c-6.6-5.8-3.8-15.2-9.3-21.5C183.7,290.6,181.6,292.8,182.9,294.2L182.9,294.2z"/>
			</g>
		</g>
	</g>
	<g id="loundry">
		<path class="st13" d="M328.3,402.8c0.9,8.1,1.2,17.8,0.1,28.7c-1.9,19.9-7.8,35.7-12.9,46.5c7.7,3.3,16.3,6.4,25.7,9.2
			c18.2,5.4,34.9,8,49,9.2c4.8-10.4,10-24,13.5-40.4c3-14.2,4-27,4.2-37.4c-6.9-1.4-13.8-2.9-20.7-4.3c1,7.3-2.2,14.2-8,17.8
			c-4.5,2.7-10.2,3.2-14.7,1.2c-7.8-3.4-12.3-13.9-9.3-25.2C346.3,406.4,337.3,404.6,328.3,402.8z"/>
		<path class="st14" d="M160.7,369.5c0.9,5.7,1.9,14.2,2.2,24.5c0.6,22.9-3.1,35.9-4.7,52.5c-1.2,12.8-1.5,31,2.9,53.6
			c5,0.9,12.7,2.8,21.2,7.1c24.3,12.3,27.9,30.5,44.8,38.3c9,4.2,23.8,6.2,48.3-5.3c0.8-4.6,2.1-11.6,4.1-20
			c5.5-23.3,11.7-39.5,13.6-44.8c5.3-15,9.6-39.2,4.1-78.7C251.7,387.6,206.2,378.5,160.7,369.5z"/>
		<path class="st11" d="M77.1,442.5c-2.9,7-6.4,17.7-6.8,30.9c-0.4,14.7,3.3,22.8,4.9,33.4c1.8,12.1,1.1,29.8-10.9,53.5
			c7.4,1.7,14.9,3.6,22.5,5.5c26.4,6.6,51.8,13.8,76.1,21.4c5.1-17.1,6.4-31.1,6.6-40.3c0.7-26.8-6.3-43.3,1.8-66.9
			c2.4-7,5.4-12.2,7.1-15.1C144.7,457.5,110.9,450,77.1,442.5z"/>
		<path class="st3" d="M210.4,423.9c1.1,12,2,24.5,2.6,37.3c1.6,36.9,0.5,71.3-2.4,102.6c4.6,0.1,11.3,0.4,19.5,1.8
			c20.3,3.3,33,10.1,41.9,13.6c12.7,5,32.1,9,60.7,3.5c1.8-19.3,0.9-35-0.4-46.4c-2.4-20.4-6.3-28.5-6.1-44.4
			c0.3-17.9,5.6-32.7,10.7-43.3C294.7,440.4,252.6,432.1,210.4,423.9z"/>
		<line class="st2" x1="155.6" y1="356.8" x2="24.7" y2="459.8"/>
		<line class="st2" x1="456.3" y1="413.1" x2="317.9" y2="550.4"/>
		<line class="st15" x1="53.3" y1="437.2" x2="362.1" y2="505.9"/>
		<line class="st15" x1="98.1" y1="402" x2="406.8" y2="462.2"/>
		<line class="st15" x1="143.7" y1="366.1" x2="443.6" y2="425.7"/>
		<g>
			<g>
				<path class="st5" d="M93.2,439.5c-0.9,3.6-1.8,7.2-2.7,10.7c-0.5,1.9,2.4,2.7,2.9,0.8c0.9-3.6,1.8-7.2,2.7-10.7
					C96.5,438.4,93.6,437.6,93.2,439.5L93.2,439.5z"/>
			</g>
		</g>
		<g>
			<g>
				<path class="st5" d="M93.1,445.4c1.2,0.9,2.5,1.9,3.7,2.8c0.6,0.5,1.7,0.1,2.1-0.5c0.4-0.8,0.1-1.6-0.5-2.1
					c-1.2-0.9-2.5-1.9-3.7-2.8c-0.6-0.5-1.7-0.1-2.1,0.5C92.1,444.1,92.4,444.9,93.1,445.4L93.1,445.4z"/>
			</g>
		</g>
		<g>
			<g>
				<path class="st5" d="M141.3,448.4c-1.6,3.8-3.3,7.5-4.9,11.3c-0.8,1.8,1.8,3.3,2.6,1.5c1.6-3.8,3.3-7.5,4.9-11.3
					C144.6,448.1,142,446.6,141.3,448.4L141.3,448.4z"/>
			</g>
		</g>
		<g>
			<g>
				<path class="st5" d="M139.1,456.2c1.5,1.1,3.1,2.2,4.6,3.3c1.6,1.1,3.1-1.5,1.5-2.6c-1.5-1.1-3.1-2.2-4.6-3.3
					C139.1,452.5,137.6,455.1,139.1,456.2L139.1,456.2z"/>
			</g>
		</g>
		<g>
			<g>
				<path class="st5" d="M183.6,368c-0.3,2.5-0.6,5.1-0.9,7.6c-0.2,1.9,2.8,1.9,3,0c0.3-2.5,0.6-5.1,0.9-7.6
					C186.8,366.1,183.8,366.1,183.6,368L183.6,368z"/>
			</g>
		</g>
		<g>
			<g>
				<path class="st5" d="M253.3,383.2c0,3.2-0.4,6.2-1.4,9.3c-0.6,1.8,2.3,2.6,2.9,0.8c1-3.3,1.5-6.6,1.5-10.1
					C256.2,381.3,253.2,381.3,253.3,383.2L253.3,383.2z"/>
			</g>
		</g>
		<g>
			<g>
				<path class="st5" d="M249.2,427.1c-1.2,3-1.7,6.2-1.5,9.4c0.1,1.9,3.1,1.9,3,0c-0.2-3,0.3-5.8,1.3-8.6
					C252.8,426.1,249.9,425.3,249.2,427.1L249.2,427.1z"/>
			</g>
		</g>
		<g>
			<g>
				<path class="st5" d="M309.1,440.2c-0.5,2.5-0.9,5.1-1.4,7.6c-0.3,1.9,2.5,2.7,2.9,0.8c0.5-2.5,0.9-5.1,1.4-7.6
					C312.4,439.1,309.5,438.3,309.1,440.2L309.1,440.2z"/>
			</g>
		</g>
		<g>
			<g>
				<path class="st5" d="M341,402.6c0,0.9-0.2,1.7-0.9,2.4c-1.4,1.4,0.7,3.5,2.1,2.1c1.2-1.2,1.9-2.8,1.8-4.5
					C343.9,400.7,340.9,400.7,341,402.6L341,402.6z"/>
			</g>
		</g>
		<g>
			<g>
				<path class="st5" d="M399.8,413.9c-0.4,1.6-0.7,3.3-1.1,4.9c-0.4,1.9,2.5,2.7,2.9,0.8c0.4-1.6,0.7-3.3,1.1-4.9
					C403.1,412.8,400.2,412,399.8,413.9L399.8,413.9z"/>
			</g>
		</g>
	</g>
</g>
</svg>
